<?xml version="1.0" encoding="UTF-8"?>
<svg width="150px" height="150px" viewBox="0 0 150 150" version="1.1" xmlns="http://www.w3.org/2000/svg" xmlns:xlink="http://www.w3.org/1999/xlink">
    <!-- Generator: Sketch 52.6 (67491) - http://www.bohemiancoding.com/sketch -->
    <title>ff_positive_purple</title>
    <desc>Created with Sketch.</desc>
    <g id="ff_positive_purple" stroke="none" stroke-width="1" fill="none" fill-rule="evenodd">
        <path d="M96,112 C98.209,112 100,110.209 100,108 C100,105.7905 98.209,104 96,104 C93.7905,104 92,105.7905 92,108 C92,110.209 93.7905,112 96,112 Z M53,112 C55.2092338,112 57,110.209014 57,107.999509 C57,105.790495 55.2092338,104 53,104 C50.7907662,104 49,105.790495 49,107.999509 C49,110.209014 50.7907662,112 53,112 Z M59.99975,44.0097315 C62.2088881,44.0097315 64,42.2167173 64,40.0046154 C64,37.7930142 62.2088881,36 59.99975,36 C57.7906119,36 56,37.7930142 56,40.0046154 C56,42.2167173 57.7906119,44.0097315 59.99975,44.0097315 Z M91.9997544,44 C94.2088526,44 96,42.2090139 96,39.9995088 C96,37.7904949 94.2088526,36 91.9997544,36 C89.7911474,36 88,37.7904949 88,39.9995088 C88,42.2090139 89.7911474,44 91.9997544,44 Z M114.999754,86 C117.208853,86 119,84.2095051 119,82 C119,79.7909861 117.208853,78 114.999754,78 C112.790656,78 111,79.7909861 111,82 C111,84.2095051 112.790656,86 114.999754,86 Z M34,86 C36.2089626,86 38,84.2095051 38,82 C38,79.7909861 36.2089626,78 34,78 C31.7910374,78 30,79.7909861 30,82 C30,84.2095051 31.7910374,86 34,86 Z M82.8812946,40.0568077 C82.8812946,34.9508968 87.0279566,30.8114355 92.1432225,30.8114355 C97.2591057,30.8114355 101.405768,34.9508968 101.405768,40.0568077 C101.405768,43.4726645 99.532763,46.5378136 96.6423847,48.1415775 L96.6423847,56.4624124 L125.40665,40.0568077 L74.4996913,11.0226409 L64.8834112,16.5069957 L64.8834112,31.9732706 C67.7744069,33.5770345 69.6474116,36.6415672 69.6474116,40.0568077 C69.6474116,45.1633349 65.5001323,49.3021799 60.3848664,49.3021799 C55.2696005,49.3021799 51.1229385,45.1633349 51.1229385,40.0568077 C51.1229385,36.6415672 52.9953259,33.5770345 55.8863215,31.9732706 L55.8863215,21.6387936 L23.5933504,40.0568077 L74.4996913,69.0915908 L87.6446777,61.5942103 L87.6446777,48.1415775 C84.7542993,46.5378136 82.8812946,43.4726645 82.8812946,40.0568077 Z M79.8804127,103.606414 L79.8804127,136.415775 L129.400212,107.879625 C129.918776,107.580692 130.238557,107.029051 130.238557,106.431184 L130.238557,96.627391 L119.403651,90.3842993 C118.035012,91.1528979 116.481171,91.5670906 114.866831,91.5670906 C109.751565,91.5670906 105.604903,87.4282456 105.604903,82.3217184 C105.604903,77.2151912 109.751565,73.0763462 114.866831,73.0763462 C119.982715,73.0763462 124.129376,77.2151912 124.129376,82.3217184 C124.129376,82.4585499 124.12629,82.5953814 124.120116,82.7315966 L130.238557,86.2571652 L130.238557,49.6732275 L79.8804127,78.3949007 L79.8804127,93.2361884 L91.1999294,99.7584903 C92.5259723,99.0274896 94.0501808,98.6108315 95.6725461,98.6108315 C100.787812,98.6108315 104.934474,102.750293 104.934474,107.856204 C104.934474,112.962731 100.787812,117.101576 95.6725461,117.101576 C90.5572802,117.101576 86.4100009,112.962731 86.4100009,107.856204 C86.4100009,107.695334 86.4143223,107.535081 86.4223476,107.375444 L79.8804127,103.606414 Z M69.1195873,93.2343394 L69.1195873,78.3949007 L18.7614428,49.6732275 L18.7614428,84.372342 L24.763824,80.9121073 C25.4453656,76.464467 29.2963224,73.0763462 33.9195696,73.0763462 C39.0348355,73.0763462 43.1821148,77.2151912 43.1821148,82.3217184 C43.1821148,87.4282456 39.0348355,91.5670906 33.9195696,91.5670906 C31.7132022,91.5670906 29.6303025,90.7910957 27.9900344,89.425246 L18.7614428,94.7450332 L18.7614428,106.431184 C18.7614428,107.029051 19.0806068,107.580692 19.5997883,107.879625 L69.1195873,136.415775 L69.1195873,103.607031 L62.5776524,107.377293 C62.5856777,107.53693 62.5899991,107.696567 62.5899991,107.856204 C62.5899991,112.962731 58.4427198,117.101576 53.3274539,117.101576 C48.212188,117.101576 44.0655261,112.962731 44.0655261,107.856204 C44.0655261,102.750293 48.212188,98.6108315 53.3274539,98.6108315 C54.9164829,98.6108315 56.4468648,99.012697 57.8000706,99.7591067 L69.1195873,93.2343394 Z M141,106.431184 C141,110.866497 138.629421,114.965278 134.780316,117.182935 L80.7187583,148.336758 C76.8702707,150.554414 72.1297293,150.554414 68.2812417,148.336758 L14.2190669,117.182935 C10.3705794,114.965278 8,110.866497 8,106.431184 L8,44.1241551 C8,39.9699012 10.0804304,36.0997884 13.5264133,33.8020052 C14.0937472,33.2294085 14.7370138,32.7357056 15.4395449,32.3356892 L70.0795485,1.17138865 C72.8186789,-0.390462885 76.1807038,-0.390462885 78.9198342,1.17138865 L133.560455,32.3356892 C134.271012,32.7406365 134.914895,33.2355721 135.480995,33.8069361 C138.922039,36.1053356 141,39.9735993 141,44.1241551 L141,106.431184 Z" id="Fill-3" fill="#B733A7"></path>
    </g>
</svg>